<?xml version="1.0" standalone="no"?>
<!DOCTYPE svg PUBLIC "-//W3C//DTD SVG 20010904//EN"
 "http://www.w3.org/TR/2001/REC-SVG-20010904/DTD/svg10.dtd">
<svg version="1.0" xmlns="http://www.w3.org/2000/svg"
 width="5120.000000pt" height="5120.000000pt" viewBox="0 0 5120.000000 5120.000000"
 preserveAspectRatio="xMidYMid meet">
<metadata>
Created by potrace 1.11, written by Peter Selinger 2001-2013
</metadata>
<g transform="translate(0.000000,5120.000000) scale(0.100000,-0.100000)"
fill="#000000" stroke="none">
<path d="M14067 51179 c-138 -34 -258 -102 -356 -202 -108 -110 -167 -221
-207 -392 -4 -16 -9 -1735 -10 -3818 -1 -2084 -4 -3790 -7 -3793 -3 -3 -729
-7 -1613 -8 -885 -2 -1625 -6 -1644 -9 -19 -4 -53 -9 -76 -12 -208 -29 -418
-86 -616 -168 -394 -164 -762 -448 -1024 -792 -146 -192 -281 -436 -349 -630
-9 -27 -21 -59 -25 -70 -39 -93 -101 -363 -116 -495 -3 -36 -8 -78 -11 -95 -2
-16 -5 -692 -6 -1502 -1 -809 -5 -1475 -9 -1478 -4 -4 -1662 -8 -3685 -9
l-3678 -2 -76 -21 c-134 -38 -265 -116 -357 -213 -66 -69 -157 -225 -168 -288
-3 -14 -7 -29 -9 -33 -23 -37 -28 -299 -6 -369 39 -130 70 -194 131 -275 114
-151 255 -240 450 -286 44 -11 756 -13 3725 -15 2019 -1 3672 -2 3675 -3 7 -2
6 -4158 -1 -4165 -3 -3 -1650 -6 -3660 -7 -2111 0 -3675 -4 -3704 -9 -181 -33
-302 -96 -432 -228 -24 -24 -43 -45 -43 -48 0 -3 -9 -14 -20 -26 -33 -36 -98
-178 -119 -263 -30 -115 -24 -288 13 -401 83 -259 277 -440 541 -506 79 -20
104 -20 3755 -22 l3675 -1 0 -2085 0 -2085 -3695 -5 c-2032 -3 -3706 -8 -3719
-12 -13 -4 -47 -15 -75 -24 -230 -75 -409 -259 -487 -499 -18 -57 -23 -96 -24
-205 -2 -74 0 -139 3 -145 4 -5 8 -19 9 -30 19 -123 127 -306 236 -399 46 -39
134 -99 147 -101 3 -1 19 -8 35 -17 17 -9 62 -26 100 -39 l70 -24 3700 -5
3700 -5 0 -2083 c0 -1843 -2 -2083 -15 -2086 -8 -3 -1662 -4 -3675 -4 -2695 0
-3673 -3 -3710 -11 -160 -37 -279 -103 -391 -217 -93 -94 -161 -216 -193 -344
-32 -124 -22 -314 23 -435 85 -229 274 -402 516 -471 63 -18 192 -19 3745 -21
2024 -2 3685 -5 3690 -7 7 -2 10 -706 10 -2087 l0 -2084 -3680 -1 c-3479 0
-3684 -1 -3750 -18 -95 -24 -238 -96 -306 -153 -110 -94 -198 -229 -245 -378
-22 -70 -27 -271 -9 -357 65 -303 319 -543 620 -586 28 -4 1696 -7 3708 -7
2011 0 3658 -2 3658 -5 1 -3 2 -723 4 -1600 1 -877 5 -1617 8 -1645 4 -27 10
-72 13 -100 4 -27 8 -59 10 -70 2 -11 9 -47 15 -80 48 -272 166 -574 329 -840
177 -291 504 -619 800 -802 92 -56 241 -133 335 -173 44 -18 94 -39 110 -46
62 -25 222 -72 340 -99 45 -11 165 -31 235 -40 119 -15 378 -18 1758 -18 1395
0 1532 -2 1533 -16 0 -9 1 -1658 3 -3666 1 -2007 6 -3663 10 -3680 67 -284
236 -481 491 -574 177 -64 417 -49 583 37 153 78 263 188 337 337 86 172 78
-216 79 3900 l1 3660 2088 0 2087 0 1 -3620 c0 -1991 1 -3640 3 -3665 4 -59
13 -101 38 -180 73 -228 260 -409 499 -481 92 -27 274 -35 364 -15 288 65 502
271 576 556 l22 85 0 3657 c0 2012 3 3659 6 3659 3 1 943 2 2089 3 l2082 1 1
-3655 c0 -2010 3 -3668 5 -3685 8 -55 46 -169 74 -225 100 -198 295 -348 514
-395 56 -12 267 -14 306 -3 8 3 35 10 60 17 209 57 402 230 484 436 60 150 56
-127 56 3858 l0 3652 2083 -1 c1145 -1 2085 -2 2088 -3 4 0 7 -1647 7 -3659
l0 -3658 21 -84 c74 -286 286 -491 576 -556 77 -17 269 -11 350 10 166 45 326
160 424 305 67 98 94 170 129 344 1 4 2 1648 2 3655 l0 3647 2087 0 2088 0 1
-3655 c0 -2010 4 -3675 8 -3700 16 -97 69 -222 127 -304 96 -133 222 -225 384
-282 72 -25 93 -28 220 -28 155 -1 219 12 327 63 220 103 363 288 424 546 4
17 9 1664 10 3660 2 1997 3 3646 3 3665 l1 35 1423 1 c1395 1 1599 4 1737 28
19 4 51 9 70 13 19 3 42 7 50 8 253 45 565 167 810 317 570 348 980 913 1129
1558 11 47 23 101 26 120 3 19 8 42 10 50 2 8 7 47 11 85 3 39 9 79 11 90 3
11 7 744 8 1628 1 884 5 1610 8 1614 3 3 1706 6 3784 7 l3778 2 76 21 c180 50
336 163 434 313 86 132 116 227 121 380 2 63 -1 140 -7 170 -56 300 -277 528
-584 601 -38 9 -932 12 -3829 13 l-3779 1 0 2083 c0 1145 2 2084 5 2087 2 3
1692 5 3754 5 2456 0 3770 4 3811 10 359 58 625 363 632 726 8 368 -251 688
-612 755 -46 8 -1031 11 -3824 11 -3466 0 -3763 2 -3764 17 -3 76 -1 4152 3
4156 2 3 1703 5 3779 6 3712 0 3775 0 3849 20 276 72 477 273 549 549 16 60
19 100 16 195 -1 66 -6 129 -9 140 -3 11 -10 38 -15 59 -14 59 -75 176 -126
244 -77 102 -205 198 -324 243 -137 51 92 49 -3953 49 l-3768 0 -1 23 c-4 126
0 4137 4 4144 5 7 1200 11 3779 11 3768 1 3773 1 3851 21 270 71 477 280 546
551 23 91 25 258 3 340 -8 30 -15 62 -17 71 -2 9 -15 43 -30 75 -94 205 -266
352 -489 418 l-71 21 -3315 3 c-1823 1 -3528 3 -3789 5 l-474 2 1 2070 c0
1139 1 2077 1 2085 1 13 428 15 3779 16 3572 0 3781 1 3847 18 95 24 238 96
306 153 110 94 198 229 245 378 22 70 27 271 9 357 -64 298 -301 527 -606 585
-19 4 -1730 7 -3802 9 -2072 1 -3770 4 -3774 7 -3 3 -6 676 -7 1494 -1 818 -4
1493 -7 1498 -4 6 -10 44 -13 85 -4 41 -11 91 -16 110 -5 19 -11 53 -15 74
-10 73 -75 300 -105 371 -4 11 -22 54 -39 95 -28 70 -106 230 -134 275 -221
359 -377 530 -732 803 -38 29 -235 147 -303 181 -242 121 -537 214 -782 246
-25 3 -61 8 -80 12 -19 3 -714 8 -1545 10 -830 2 -1511 6 -1513 8 -2 2 -5
1711 -6 3797 l-1 3793 -24 80 c-62 211 -194 374 -382 471 -106 56 -191 76
-324 80 -98 3 -129 0 -224 -22 -125 -28 -305 -151 -399 -274 -58 -75 -122
-225 -138 -320 -4 -25 -8 -1745 -8 -3822 -1 -2077 -4 -3779 -7 -3783 -5 -4
-3951 -10 -4141 -6 l-28 1 -2 3808 -3 3807 -21 65 c-86 264 -264 445 -514 521
-112 35 -313 34 -427 -1 -262 -80 -456 -288 -519 -558 -14 -60 -16 -439 -16
-3854 l-1 -3788 -21 -1 c-26 0 -4102 0 -4133 0 l-23 1 0 3783 c0 4061 2 3831
-49 3968 -45 119 -141 247 -243 324 -68 51 -185 112 -244 126 -21 5 -48 12
-59 15 -11 3 -74 8 -140 9 -95 3 -135 0 -195 -16 -276 -72 -477 -273 -549
-549 -20 -74 -20 -137 -20 -3864 -1 -2084 -3 -3791 -5 -3794 -4 -3 -4023 -6
-4152 -3 l-22 1 0 3778 c0 2805 -3 3793 -11 3839 -52 281 -272 520 -541 588
-78 19 -119 23 -224 21 -92 -2 -138 -8 -191 -25 -262 -84 -457 -296 -515 -560
-19 -84 -20 -184 -20 -3860 0 -2076 -2 -3776 -4 -3779 -4 -3 -4007 -6 -4151
-2 -20 0 -20 7 -21 3788 0 3552 -1 3792 -17 3860 -62 264 -265 479 -522 553
-102 30 -284 34 -388 8z"/>
</g>
</svg>
